<svg width="120" height="14" viewBox="0 0 120 14" fill="none" xmlns="http://www.w3.org/2000/svg">
<path d="M1.34668 0.203125H3.5791L6.86621 9.59863L10.1533 0.203125H12.3857L7.7627 13H5.96973L1.34668 0.203125ZM0.142578 0.203125H2.36621L2.77051 9.36133V13H0.142578V0.203125ZM11.3662 0.203125H13.5986V13H10.9619V9.36133L11.3662 0.203125ZM21.2715 2.3916L17.791 13H14.9873L19.7422 0.203125H21.5264L21.2715 2.3916ZM24.1631 13L20.6738 2.3916L20.3926 0.203125H22.1943L26.9756 13H24.1631ZM24.0049 8.23633V10.3018H17.2461V8.23633H24.0049ZM32.7939 0.203125V13H30.166V0.203125H32.7939ZM36.7314 0.203125V2.26855H26.29V0.203125H36.7314ZM46.8213 10.9434V13H40.0098V10.9434H46.8213ZM40.8711 0.203125V13H38.2344V0.203125H40.8711ZM45.9336 5.41504V7.41895H40.0098V5.41504H45.9336ZM46.8125 0.203125V2.26855H40.0098V0.203125H46.8125ZM48.3594 0.203125H53.1318C54.1104 0.203125 54.9512 0.349609 55.6543 0.642578C56.3633 0.935547 56.9082 1.36914 57.2891 1.94336C57.6699 2.51758 57.8604 3.22363 57.8604 4.06152C57.8604 4.74707 57.7432 5.33594 57.5088 5.82812C57.2803 6.31445 56.9551 6.72168 56.5332 7.0498C56.1172 7.37207 55.6279 7.62988 55.0654 7.82324L54.2305 8.2627H50.082L50.0645 6.20605H53.1494C53.6123 6.20605 53.9961 6.12402 54.3008 5.95996C54.6055 5.7959 54.834 5.56738 54.9863 5.27441C55.1445 4.98145 55.2236 4.6416 55.2236 4.25488C55.2236 3.84473 55.1475 3.49023 54.9951 3.19141C54.8428 2.89258 54.6113 2.66406 54.3008 2.50586C53.9902 2.34766 53.6006 2.26855 53.1318 2.26855H50.9961V13H48.3594V0.203125ZM55.5137 13L52.5957 7.2959L55.3818 7.27832L58.335 12.877V13H55.5137ZM62.6943 0.203125V13H60.0664V0.203125H62.6943ZM70.5254 2.3916L67.0449 13H64.2412L68.9961 0.203125H70.7803L70.5254 2.3916ZM73.417 13L69.9277 2.3916L69.6465 0.203125H71.4482L76.2295 13H73.417ZM73.2588 8.23633V10.3018H66.5V8.23633H73.2588ZM85.6426 10.9434V13H79.2002V10.9434H85.6426ZM80.0527 0.203125V13H77.416V0.203125H80.0527ZM91.9883 7.78809H88.3408V6.86523H91.9883C92.75 6.86523 93.3682 6.74219 93.8428 6.49609C94.3232 6.24414 94.6719 5.9043 94.8887 5.47656C95.1113 5.04883 95.2227 4.56836 95.2227 4.03516C95.2227 3.51367 95.1113 3.0332 94.8887 2.59375C94.6719 2.1543 94.3232 1.80273 93.8428 1.53906C93.3682 1.26953 92.75 1.13477 91.9883 1.13477H88.7188V13H87.6377V0.203125H91.9883C92.9258 0.203125 93.7139 0.364258 94.3525 0.686523C94.9971 1.00879 95.4834 1.45703 95.8115 2.03125C96.1396 2.60547 96.3037 3.26758 96.3037 4.01758C96.3037 4.80273 96.1396 5.47949 95.8115 6.04785C95.4834 6.61035 95 7.04102 94.3613 7.33984C93.7227 7.63867 92.9316 7.78809 91.9883 7.78809ZM98.7031 0.203125H102.86C103.745 0.203125 104.513 0.34668 105.163 0.633789C105.813 0.920898 106.314 1.3457 106.666 1.9082C107.023 2.46484 107.202 3.15039 107.202 3.96484C107.202 4.56836 107.073 5.11621 106.815 5.6084C106.563 6.10059 106.215 6.51367 105.77 6.84766C105.324 7.17578 104.809 7.40137 104.223 7.52441L103.845 7.66504H99.4062L99.3887 6.74219H103.106C103.774 6.74219 104.331 6.61328 104.776 6.35547C105.222 6.09766 105.556 5.75781 105.778 5.33594C106.007 4.9082 106.121 4.45117 106.121 3.96484C106.121 3.38477 105.995 2.88379 105.743 2.46191C105.497 2.03418 105.131 1.70605 104.645 1.47754C104.158 1.24902 103.563 1.13477 102.86 1.13477H99.7842V13H98.7031V0.203125ZM106.604 13L103.291 7.27832L104.451 7.26953L107.756 12.8857V13H106.604ZM119.621 5.91602V7.28711C119.621 8.18359 119.504 8.99512 119.27 9.72168C119.041 10.4424 118.707 11.0605 118.268 11.5762C117.834 12.0918 117.312 12.4873 116.703 12.7627C116.094 13.0381 115.408 13.1758 114.646 13.1758C113.902 13.1758 113.223 13.0381 112.607 12.7627C111.998 12.4873 111.474 12.0918 111.034 11.5762C110.595 11.0605 110.255 10.4424 110.015 9.72168C109.774 8.99512 109.654 8.18359 109.654 7.28711V5.91602C109.654 5.01953 109.771 4.21094 110.006 3.49023C110.246 2.76367 110.586 2.14258 111.025 1.62695C111.465 1.11133 111.989 0.71582 112.599 0.44043C113.208 0.165039 113.885 0.0273438 114.629 0.0273438C115.391 0.0273438 116.076 0.165039 116.686 0.44043C117.295 0.71582 117.819 1.11133 118.259 1.62695C118.698 2.14258 119.035 2.76367 119.27 3.49023C119.504 4.21094 119.621 5.01953 119.621 5.91602ZM118.549 7.28711V5.89844C118.549 5.14258 118.461 4.46289 118.285 3.85938C118.115 3.25586 117.86 2.74023 117.521 2.3125C117.187 1.88477 116.776 1.55664 116.29 1.32812C115.804 1.09961 115.25 0.985352 114.629 0.985352C114.025 0.985352 113.483 1.09961 113.003 1.32812C112.522 1.55664 112.112 1.88477 111.772 2.3125C111.438 2.74023 111.181 3.25586 110.999 3.85938C110.823 4.46289 110.735 5.14258 110.735 5.89844V7.28711C110.735 8.04883 110.823 8.73438 110.999 9.34375C111.181 9.94727 111.441 10.4658 111.781 10.8994C112.121 11.3271 112.531 11.6553 113.012 11.8838C113.498 12.1123 114.043 12.2266 114.646 12.2266C115.273 12.2266 115.827 12.1123 116.308 11.8838C116.788 11.6553 117.195 11.3271 117.529 10.8994C117.863 10.4658 118.115 9.94727 118.285 9.34375C118.461 8.73438 118.549 8.04883 118.549 7.28711Z" fill="white"/>
</svg>
