<svg width="16" height="16" viewBox="0 0 16 16" fill="none" xmlns="http://www.w3.org/2000/svg">
<path d="M0.000112502 1.91865C0.000112502 3.5732 0.426787 4.38288 2.13348 5.86142C4.02685 7.51597 4.26685 8.04402 4.26685 10.5082C4.26685 13.9582 5.06687 16 6.42689 16C7.36024 16 7.46691 15.5071 7.46691 10.5435L7.44024 5.08694L4.02685 2.4467C-0.0798891 -0.721599 0.000112502 -0.721599 0.000112502 1.91865Z" fill="#525C65"/>
<path d="M11.8666 2.4819L8.55987 5.08694L8.5332 10.5435C8.5332 15.5071 8.63987 16 9.57322 16C10.9332 16 11.7333 13.9582 11.7333 10.5082C11.7333 8.04402 11.9733 7.51597 13.8666 5.86142C15.5733 4.38288 16 3.5732 16 1.91865C16 -0.721599 15.92 -0.686395 11.8666 2.4819Z" fill="#525C65"/>
</svg>
