<svg width="24" height="24" viewBox="0 0 24 24" fill="none" xmlns="http://www.w3.org/2000/svg">
<path d="M0.000168753 2.87797C0.000168753 5.3598 0.64018 6.57432 3.20023 8.79212C6.04028 11.274 6.40028 12.066 6.40028 15.7624C6.40028 20.9373 7.6003 23.9999 9.64034 23.9999C11.0404 23.9999 11.2004 23.2607 11.2004 15.8152L11.1604 7.63041L6.04027 3.67005C-0.119834 -1.0824 0.000168753 -1.0824 0.000168753 2.87797Z" fill="white"/>
<path d="M17.7999 3.72285L12.8398 7.63041L12.7998 15.8152C12.7998 23.2607 12.9598 23.9999 14.3598 23.9999C16.3999 23.9999 17.5999 20.9373 17.5999 15.7624C17.5999 12.066 17.9599 11.274 20.7999 8.79212C23.36 6.57432 24 5.3598 24 2.87797C24 -1.0824 23.88 -1.02959 17.7999 3.72285Z" fill="white"/>
</svg>
