<svg width="164" height="23" viewBox="0 0 164 23" fill="none" xmlns="http://www.w3.org/2000/svg">
<path d="M0.000210938 2.72516C0.000210938 5.07516 0.800211 6.22516 4.00021 8.32516C7.55021 10.6752 8.00021 11.4252 8.00021 14.9252C8.00021 19.8252 9.50021 22.7252 12.0502 22.7252C13.8002 22.7252 14.0002 22.0252 14.0002 14.9752L13.9502 7.22516L7.55021 3.47516C-0.149789 -1.02484 0.000210938 -1.02484 0.000210938 2.72516Z" fill="#444444"/>
<path d="M22.2502 3.52516L16.0502 7.22516L16.0002 14.9752C16.0002 22.0252 16.2002 22.7252 17.9502 22.7252C20.5002 22.7252 22.0002 19.8252 22.0002 14.9252C22.0002 11.4252 22.4502 10.6752 26.0002 8.32516C29.2002 6.22516 30.0002 5.07516 30.0002 2.72516C30.0002 -1.02484 29.8502 -0.974842 22.2502 3.52516Z" fill="#444444"/>
<path d="M44.3469 4.92828H46.5793L49.8664 14.3238L53.1535 4.92828H55.386L50.7629 17.7252H48.9699L44.3469 4.92828ZM43.1428 4.92828H45.3664L45.7707 14.0865V17.7252H43.1428V4.92828ZM54.3664 4.92828H56.5988V17.7252H53.9621V14.0865L54.3664 4.92828ZM64.2717 7.11676L60.7912 17.7252H57.9875L62.7424 4.92828H64.5266L64.2717 7.11676ZM67.1633 17.7252L63.674 7.11676L63.3928 4.92828H65.1945L69.9758 17.7252H67.1633ZM67.0051 12.9615V15.0269H60.2463V12.9615H67.0051ZM75.7942 4.92828V17.7252H73.1662V4.92828H75.7942ZM79.7317 4.92828V6.99371H69.2903V4.92828H79.7317ZM89.8215 15.6685V17.7252H83.01V15.6685H89.8215ZM83.8713 4.92828V17.7252H81.2346V4.92828H83.8713ZM88.9338 10.1402V12.1441H83.01V10.1402H88.9338ZM89.8127 4.92828V6.99371H83.01V4.92828H89.8127ZM91.3596 4.92828H96.132C97.1106 4.92828 97.9514 5.07477 98.6545 5.36774C99.3635 5.66071 99.9084 6.0943 100.289 6.66852C100.67 7.24274 100.861 7.94879 100.861 8.78668C100.861 9.47223 100.743 10.0611 100.509 10.5533C100.28 11.0396 99.9553 11.4468 99.5334 11.775C99.1174 12.0972 98.6281 12.355 98.0656 12.5484L97.2307 12.9879H93.0822L93.0647 10.9312H96.1496C96.6125 10.9312 96.9963 10.8492 97.301 10.6851C97.6057 10.5211 97.8342 10.2925 97.9865 9.99957C98.1447 9.7066 98.2238 9.36676 98.2238 8.98004C98.2238 8.56989 98.1477 8.21539 97.9953 7.91656C97.843 7.61774 97.6115 7.38922 97.301 7.23102C96.9904 7.07281 96.6008 6.99371 96.132 6.99371H93.9963V17.7252H91.3596V4.92828ZM98.5139 17.7252L95.5959 12.0211L98.382 12.0035L101.335 17.6021V17.7252H98.5139ZM105.695 4.92828V17.7252H103.067V4.92828H105.695ZM113.526 7.11676L110.045 17.7252H107.241L111.996 4.92828H113.78L113.526 7.11676ZM116.417 17.7252L112.928 7.11676L112.647 4.92828H114.448L119.23 17.7252H116.417ZM116.259 12.9615V15.0269H109.5V12.9615H116.259ZM128.643 15.6685V17.7252H122.2V15.6685H128.643ZM123.053 4.92828V17.7252H120.416V4.92828H123.053ZM134.988 12.5132H131.341V11.5904H134.988C135.75 11.5904 136.368 11.4673 136.843 11.2213C137.323 10.9693 137.672 10.6295 137.889 10.2017C138.112 9.77399 138.223 9.29352 138.223 8.76031C138.223 8.23883 138.112 7.75836 137.889 7.31891C137.672 6.87946 137.323 6.52789 136.843 6.26422C136.368 5.99469 135.75 5.85992 134.988 5.85992H131.719V17.7252H130.638V4.92828H134.988C135.926 4.92828 136.714 5.08942 137.353 5.41168C137.997 5.73395 138.484 6.18219 138.812 6.75641C139.14 7.33063 139.304 7.99274 139.304 8.74274C139.304 9.52789 139.14 10.2047 138.812 10.773C138.484 11.3355 138 11.7662 137.362 12.065C136.723 12.3638 135.932 12.5132 134.988 12.5132ZM141.703 4.92828H145.861C146.745 4.92828 147.513 5.07184 148.163 5.35895C148.814 5.64606 149.315 6.07086 149.666 6.63336C150.024 7.19 150.202 7.87555 150.202 8.69C150.202 9.29352 150.073 9.84137 149.816 10.3336C149.564 10.8257 149.215 11.2388 148.77 11.5728C148.324 11.9009 147.809 12.1265 147.223 12.2496L146.845 12.3902H142.406L142.389 11.4673H146.107C146.775 11.4673 147.331 11.3384 147.777 11.0806C148.222 10.8228 148.556 10.483 148.779 10.0611C149.007 9.63336 149.121 9.17633 149.121 8.69C149.121 8.10992 148.995 7.60895 148.743 7.18707C148.497 6.75934 148.131 6.43121 147.645 6.2027C147.158 5.97418 146.564 5.85992 145.861 5.85992H142.784V17.7252H141.703V4.92828ZM149.605 17.7252L146.291 12.0035L147.451 11.9947L150.756 17.6109V17.7252H149.605ZM162.621 10.6412V12.0123C162.621 12.9088 162.504 13.7203 162.27 14.4468C162.041 15.1675 161.707 15.7857 161.268 16.3013C160.834 16.817 160.313 17.2125 159.703 17.4879C159.094 17.7632 158.408 17.9009 157.647 17.9009C156.903 17.9009 156.223 17.7632 155.608 17.4879C154.998 17.2125 154.474 16.817 154.034 16.3013C153.595 15.7857 153.255 15.1675 153.015 14.4468C152.775 13.7203 152.655 12.9088 152.655 12.0123V10.6412C152.655 9.74469 152.772 8.9361 153.006 8.21539C153.246 7.48883 153.586 6.86774 154.026 6.35211C154.465 5.83649 154.989 5.44098 155.599 5.16559C156.208 4.8902 156.885 4.7525 157.629 4.7525C158.391 4.7525 159.076 4.8902 159.686 5.16559C160.295 5.44098 160.82 5.83649 161.259 6.35211C161.698 6.86774 162.035 7.48883 162.27 8.21539C162.504 8.9361 162.621 9.74469 162.621 10.6412ZM161.549 12.0123V10.6236C161.549 9.86774 161.461 9.18805 161.285 8.58453C161.115 7.98102 160.861 7.46539 160.521 7.03766C160.187 6.60992 159.777 6.2818 159.29 6.05328C158.804 5.82477 158.25 5.71051 157.629 5.71051C157.026 5.71051 156.484 5.82477 156.003 6.05328C155.523 6.2818 155.113 6.60992 154.773 7.03766C154.439 7.46539 154.181 7.98102 153.999 8.58453C153.823 9.18805 153.736 9.86774 153.736 10.6236V12.0123C153.736 12.774 153.823 13.4595 153.999 14.0689C154.181 14.6724 154.442 15.191 154.781 15.6246C155.121 16.0523 155.531 16.3804 156.012 16.6089C156.498 16.8375 157.043 16.9517 157.647 16.9517C158.274 16.9517 158.827 16.8375 159.308 16.6089C159.788 16.3804 160.196 16.0523 160.53 15.6246C160.863 15.191 161.115 14.6724 161.285 14.0689C161.461 13.4595 161.549 12.774 161.549 12.0123Z" fill="#525C65"/>
</svg>
