<svg width="164" height="24" viewBox="0 0 164 24" fill="none" xmlns="http://www.w3.org/2000/svg">
<path d="M0.000210938 2.84508C0.000210938 5.29849 0.800211 6.49909 4.00021 8.6915C7.55021 11.1449 8.00021 11.9279 8.00021 15.5819C8.00021 20.6975 9.50021 23.7252 12.0502 23.7252C13.8002 23.7252 14.0002 22.9944 14.0002 15.6341L13.9502 7.54309L7.55021 3.62808C-0.149789 -1.06994 0.000210938 -1.06994 0.000210938 2.84508Z" fill="white"/>
<path d="M22.2502 3.68028L16.0502 7.5431L16.0002 15.6341C16.0002 22.9944 16.2002 23.7252 17.9502 23.7252C20.5002 23.7252 22.0002 20.6975 22.0002 15.5819C22.0002 11.9279 22.4502 11.1449 26.0002 8.6915C29.2002 6.49909 30.0002 5.29849 30.0002 2.84508C30.0002 -1.06994 29.8502 -1.01774 22.2502 3.68028Z" fill="white"/>
<path d="M44.3469 5.0042H46.5793L49.8664 14.3997L53.1535 5.0042H55.386L50.7629 17.8011H48.9699L44.3469 5.0042ZM43.1428 5.0042H45.3664L45.7707 14.1624V17.8011H43.1428V5.0042ZM54.3664 5.0042H56.5988V17.8011H53.9621V14.1624L54.3664 5.0042ZM64.2717 7.19267L60.7912 17.8011H57.9875L62.7424 5.0042H64.5266L64.2717 7.19267ZM67.1633 17.8011L63.674 7.19267L63.3928 5.0042H65.1945L69.9758 17.8011H67.1633ZM67.0051 13.0374V15.1028H60.2463V13.0374H67.0051ZM75.7942 5.0042V17.8011H73.1662V5.0042H75.7942ZM79.7317 5.0042V7.06963H69.2903V5.0042H79.7317ZM89.8215 15.7444V17.8011H83.01V15.7444H89.8215ZM83.8713 5.0042V17.8011H81.2346V5.0042H83.8713ZM88.9338 10.2161V12.22H83.01V10.2161H88.9338ZM89.8127 5.0042V7.06963H83.01V5.0042H89.8127ZM91.3596 5.0042H96.132C97.1106 5.0042 97.9514 5.15068 98.6545 5.44365C99.3635 5.73662 99.9084 6.17021 100.289 6.74443C100.67 7.31865 100.861 8.0247 100.861 8.86259C100.861 9.54814 100.743 10.137 100.509 10.6292C100.28 11.1155 99.9553 11.5228 99.5334 11.8509C99.1174 12.1731 98.6281 12.431 98.0656 12.6243L97.2307 13.0638H93.0822L93.0647 11.0071H96.1496C96.6125 11.0071 96.9963 10.9251 97.301 10.761C97.6057 10.597 97.8342 10.3685 97.9865 10.0755C98.1447 9.78252 98.2238 9.44267 98.2238 9.05595C98.2238 8.6458 98.1477 8.29131 97.9953 7.99248C97.843 7.69365 97.6115 7.46513 97.301 7.30693C96.9904 7.14873 96.6008 7.06963 96.132 7.06963H93.9963V17.8011H91.3596V5.0042ZM98.5139 17.8011L95.5959 12.097L98.382 12.0794L101.335 17.678V17.8011H98.5139ZM105.695 5.0042V17.8011H103.067V5.0042H105.695ZM113.526 7.19267L110.045 17.8011H107.241L111.996 5.0042H113.78L113.526 7.19267ZM116.417 17.8011L112.928 7.19267L112.647 5.0042H114.448L119.23 17.8011H116.417ZM116.259 13.0374V15.1028H109.5V13.0374H116.259ZM128.643 15.7444V17.8011H122.2V15.7444H128.643ZM123.053 5.0042V17.8011H120.416V5.0042H123.053ZM134.988 12.5892H131.341V11.6663H134.988C135.75 11.6663 136.368 11.5433 136.843 11.2972C137.323 11.0452 137.672 10.7054 137.889 10.2776C138.112 9.8499 138.223 9.36943 138.223 8.83623C138.223 8.31474 138.112 7.83427 137.889 7.39482C137.672 6.95537 137.323 6.60381 136.843 6.34013C136.368 6.0706 135.75 5.93584 134.988 5.93584H131.719V17.8011H130.638V5.0042H134.988C135.926 5.0042 136.714 5.16533 137.353 5.48759C137.997 5.80986 138.484 6.2581 138.812 6.83232C139.14 7.40654 139.304 8.06865 139.304 8.81865C139.304 9.60381 139.14 10.2806 138.812 10.8489C138.484 11.4114 138 11.8421 137.362 12.1409C136.723 12.4397 135.932 12.5892 134.988 12.5892ZM141.703 5.0042H145.861C146.745 5.0042 147.513 5.14775 148.163 5.43486C148.814 5.72197 149.315 6.14677 149.666 6.70927C150.024 7.26591 150.202 7.95146 150.202 8.76591C150.202 9.36943 150.073 9.91728 149.816 10.4095C149.564 10.9017 149.215 11.3147 148.77 11.6487C148.324 11.9769 147.809 12.2024 147.223 12.3255L146.845 12.4661H142.406L142.389 11.5433H146.107C146.775 11.5433 147.331 11.4144 147.777 11.1565C148.222 10.8987 148.556 10.5589 148.779 10.137C149.007 9.70927 149.121 9.25224 149.121 8.76591C149.121 8.18584 148.995 7.68486 148.743 7.26299C148.497 6.83525 148.131 6.50713 147.645 6.27861C147.158 6.05009 146.564 5.93584 145.861 5.93584H142.784V17.8011H141.703V5.0042ZM149.605 17.8011L146.291 12.0794L147.451 12.0706L150.756 17.6868V17.8011H149.605ZM162.621 10.7171V12.0882C162.621 12.9847 162.504 13.7962 162.27 14.5228C162.041 15.2435 161.707 15.8616 161.268 16.3772C160.834 16.8929 160.313 17.2884 159.703 17.5638C159.094 17.8392 158.408 17.9769 157.647 17.9769C156.903 17.9769 156.223 17.8392 155.608 17.5638C154.998 17.2884 154.474 16.8929 154.034 16.3772C153.595 15.8616 153.255 15.2435 153.015 14.5228C152.775 13.7962 152.655 12.9847 152.655 12.0882V10.7171C152.655 9.8206 152.772 9.01201 153.006 8.29131C153.246 7.56474 153.586 6.94365 154.026 6.42802C154.465 5.9124 154.989 5.51689 155.599 5.2415C156.208 4.96611 156.885 4.82841 157.629 4.82841C158.391 4.82841 159.076 4.96611 159.686 5.2415C160.295 5.51689 160.82 5.9124 161.259 6.42802C161.698 6.94365 162.035 7.56474 162.27 8.29131C162.504 9.01201 162.621 9.8206 162.621 10.7171ZM161.549 12.0882V10.6995C161.549 9.94365 161.461 9.26396 161.285 8.66045C161.115 8.05693 160.861 7.54131 160.521 7.11357C160.187 6.68584 159.777 6.35771 159.29 6.1292C158.804 5.90068 158.25 5.78642 157.629 5.78642C157.026 5.78642 156.484 5.90068 156.003 6.1292C155.523 6.35771 155.113 6.68584 154.773 7.11357C154.439 7.54131 154.181 8.05693 153.999 8.66045C153.823 9.26396 153.736 9.94365 153.736 10.6995V12.0882C153.736 12.8499 153.823 13.5354 153.999 14.1448C154.181 14.7483 154.442 15.2669 154.781 15.7005C155.121 16.1282 155.531 16.4563 156.012 16.6849C156.498 16.9134 157.043 17.0276 157.647 17.0276C158.274 17.0276 158.827 16.9134 159.308 16.6849C159.788 16.4563 160.196 16.1282 160.53 15.7005C160.863 15.2669 161.115 14.7483 161.285 14.1448C161.461 13.5354 161.549 12.8499 161.549 12.0882Z" fill="white"/>
</svg>
