<svg width="174" height="34" viewBox="0 0 174 34" fill="none" xmlns="http://www.w3.org/2000/svg">
<mask id="mask0_189_332" style="mask-type:luminance" maskUnits="userSpaceOnUse" x="0" y="0" width="174" height="34">
<path d="M174 0.5H0V33.787H174V0.5Z" fill="white"/>
</mask>
<g mask="url(#mask0_189_332)">
<path fill-rule="evenodd" clip-rule="evenodd" d="M47.1712 0.689179C50.0637 1.48706 57.5529 4.54642 56.6617 14.701C56.1821 17.3108 54.9221 19.7126 53.0494 21.5876C51.1766 23.4625 48.7795 24.7219 46.1767 25.1985L39.6218 25.1924C39.2837 25.1921 38.9516 25.1055 38.6561 24.9408C38.3603 24.7762 38.1118 24.5387 37.9329 24.2509C37.7544 23.9632 37.6517 23.6345 37.6346 23.2959C37.6176 22.9574 37.6867 22.62 37.8357 22.3156C37.8357 22.3156 40.0905 17.0028 40.2172 16.7406C40.3799 16.4019 40.6348 16.1162 40.9522 15.9164C41.2696 15.7165 41.6368 15.6106 42.0117 15.6108C43.1109 15.6108 44.6126 15.637 44.6126 15.637C44.6126 15.637 46.6242 15.985 46.8311 13.4068L46.8947 12.6109C46.973 11.9731 46.8421 11.327 46.5213 10.7705C46.2006 10.2141 45.7077 9.77766 45.1176 9.52736L44.2484 9.46181C42.7871 9.40431 43.5172 7.7551 43.5183 7.74704L45.5953 2.0368C45.5953 2.0368 46.0648 -0.0219505 47.1712 0.689179Z" fill="#9B8FFA"/>
<path fill-rule="evenodd" clip-rule="evenodd" d="M10.819 23.882C10.6292 23.5071 10.5409 23.0887 10.5632 22.6687C10.5855 22.2488 10.7174 21.8421 10.9458 21.4894C11.3722 20.8337 18.464 2.82853 18.464 2.82853C18.6699 2.12947 19.0984 1.51724 19.6839 1.08538C20.2695 0.653518 20.9799 0.425764 21.7066 0.436914H28.0762C28.3601 0.437561 28.6394 0.508274 28.8895 0.642811C29.1396 0.777347 29.3528 0.971573 29.5104 1.20833C29.668 1.4451 29.765 1.71712 29.7929 2.00039C29.8208 2.28366 29.7787 2.56946 29.6704 2.83257C29.6704 2.83257 18.461 31.7448 18.3503 31.993C18.1915 32.3496 17.9319 32.6516 17.6037 32.8618C17.2755 33.0719 16.893 33.181 16.5036 33.1754C16.1142 33.1698 15.735 33.0499 15.4129 32.8304C15.0908 32.6109 14.8399 32.3015 14.6913 31.9405C14.6913 31.9405 11.2143 24.6587 10.819 23.882Z" fill="#8D70F8"/>
<path fill-rule="evenodd" clip-rule="evenodd" d="M25.1516 23.882C24.9617 23.5071 24.8735 23.0887 24.8957 22.6687C24.9179 22.2488 25.0499 21.8421 25.2783 21.4894C25.7047 20.8337 31.9999 2.82853 31.9999 2.82853C32.2059 2.12947 32.6343 1.51724 33.2199 1.08538C33.8054 0.653518 34.5158 0.425764 35.2425 0.436914H41.6121C41.8958 0.437891 42.175 0.508845 42.4246 0.643521C42.6746 0.778195 42.8876 0.972454 43.045 1.20917C43.2023 1.44589 43.2992 1.71778 43.3268 2.00089C43.3548 2.284 43.3124 2.56962 43.2042 2.83257C43.2042 2.83257 31.9959 31.7448 31.8832 31.993C31.7244 32.3496 31.4648 32.6516 31.1366 32.8618C30.8084 33.0719 30.4259 33.181 30.0365 33.1754C29.6471 33.1698 29.2679 33.0499 28.9458 32.8304C28.6237 32.6109 28.3728 32.3015 28.2242 31.9405C28.2242 31.9405 25.5468 24.6587 25.1516 23.882Z" fill="#9B8FFA"/>
<path fill-rule="evenodd" clip-rule="evenodd" d="M14.1433 0.437988C14.4699 0.438034 14.7914 0.518627 15.0796 0.672668C15.3678 0.826709 15.6138 1.04947 15.796 1.32133C15.9781 1.59318 16.0908 1.90579 16.1241 2.23161C16.1574 2.55743 16.1103 2.88646 15.9869 3.18971L10.4269 15.9336C10.2797 16.3147 10.0194 16.6413 9.68122 16.8693C9.34302 17.0974 8.94319 17.2159 8.53573 17.2089C8.12827 17.2018 7.73276 17.0696 7.40261 16.83C7.07243 16.5904 6.82353 16.255 6.68944 15.869C6.63815 15.7086 1.12346 2.83263 1.12346 2.83263C1.04522 2.62261 1.00536 2.40017 1.00578 2.17597C0.987789 1.73393 1.14527 1.30277 1.44372 0.976988C1.74217 0.651205 2.15723 0.457377 2.59794 0.437988H14.1433Z" fill="#613CEA"/>
<path fill-rule="evenodd" clip-rule="evenodd" d="M83.4066 20.3038L79.4338 7.94527H75.8361L71.8871 20.2513L68.6174 7.94527H64.9475L69.902 25.8274H73.5227L77.5969 13.0906L81.6697 25.8274H85.2408L90.1692 7.94527H86.626L83.4066 20.3038ZM97.4008 13.368C97.142 13.3379 96.8818 13.321 96.6216 13.3176C95.9101 13.2643 95.1989 13.4195 94.5737 13.7642C93.9488 14.1089 93.4374 14.6284 93.1011 15.2593V13.4184H89.8564V25.8254H93.2017V20.1525C93.2017 17.4795 94.6852 16.6463 96.395 16.6463C96.7328 16.646 97.0698 16.6798 97.4008 16.7471V13.368ZM98.1955 22.4463C98.1955 24.388 99.8046 26.1785 102.446 26.1785C103.161 26.2143 103.872 26.0635 104.511 25.7408C105.15 25.4182 105.695 24.9346 106.092 24.3376C106.09 24.8363 106.132 25.3342 106.218 25.8254H109.286C109.19 25.1742 109.139 24.5169 109.135 23.8584V17.7558C109.135 15.2593 107.676 13.0392 103.753 13.0392C100.434 13.0392 98.6479 15.1827 98.447 17.1254L101.414 17.7558C101.461 17.174 101.737 16.6347 102.18 16.2565C102.623 15.8782 103.198 15.6919 103.779 15.7385C105.187 15.7385 105.865 16.4698 105.865 17.3524C105.866 17.4727 105.842 17.5919 105.795 17.7026C105.747 17.8132 105.678 17.913 105.591 17.9957C105.504 18.0784 105.401 18.1423 105.288 18.1835C105.175 18.2246 105.055 18.2421 104.935 18.235L101.893 18.6889C99.83 18.9915 98.1955 20.2271 98.1955 22.4463ZM103.15 23.6819C102.948 23.704 102.744 23.6832 102.55 23.6212C102.357 23.5591 102.179 23.4571 102.027 23.3216C101.875 23.1862 101.754 23.0203 101.67 22.8348C101.586 22.6493 101.542 22.4482 101.541 22.2446C101.542 21.8344 101.703 21.4409 101.99 21.1486C102.277 20.8563 102.667 20.6885 103.075 20.6811L105.867 20.2524V20.8072C105.866 23.0021 104.558 23.6819 103.15 23.6819ZM114.573 30.6177V24.616C115.011 25.128 115.561 25.5312 116.181 25.7937C116.801 26.0563 117.473 26.1711 118.144 26.129C121.639 26.129 123.978 23.3551 123.978 19.5967C123.978 15.914 121.89 13.1411 118.269 13.1411C117.536 13.0917 116.803 13.2301 116.139 13.5433C115.474 13.8566 114.901 14.3343 114.471 14.9315V13.4184H111.227V30.6187H114.572L114.573 30.6177ZM120.684 19.6229C120.684 21.8421 119.326 23.1292 117.616 23.1292C115.906 23.1292 114.522 21.8179 114.522 19.6229C114.522 17.428 115.905 16.1429 117.616 16.1429C119.327 16.1429 120.684 17.428 120.684 19.6229ZM128.846 16.0925V10.9714H131.587C131.945 10.9262 132.309 10.9599 132.652 11.0699C132.996 11.1799 133.312 11.3638 133.577 11.6086C133.843 11.8534 134.052 12.1533 134.191 12.4875C134.329 12.8217 134.393 13.182 134.378 13.5435C134.388 13.9027 134.321 14.2596 134.18 14.5901C134.04 14.9206 133.83 15.2168 133.565 15.4586C133.3 15.7004 132.986 15.882 132.645 15.991C132.304 16.1001 131.943 16.134 131.587 16.0905H128.841L128.846 16.0925ZM132.015 19.0944C135.535 19.0944 137.874 16.7744 137.874 13.5203C137.874 10.2925 135.535 7.9463 132.015 7.9463H125.35V25.8274H128.821V19.0934L132.015 19.0944ZM142.314 25.8285V13.4215H138.97V25.8285H142.318H142.314ZM138.567 9.35744C138.573 9.76531 138.697 10.1626 138.927 10.4993C139.157 10.8361 139.48 11.0972 139.858 11.2498C140.235 11.4025 140.648 11.4398 141.047 11.3572C141.445 11.2746 141.81 11.0757 142.096 10.7855C142.382 10.4954 142.576 10.1269 142.653 9.72647C142.731 9.32604 142.688 8.91158 142.532 8.53521C142.375 8.1588 142.111 7.83736 141.772 7.61123C141.434 7.38511 141.036 7.26444 140.629 7.2644C140.356 7.26493 140.087 7.31959 139.835 7.42528C139.584 7.53096 139.355 7.68556 139.164 7.88014C138.972 8.07471 138.821 8.30545 138.718 8.559C138.616 8.81255 138.565 9.08395 138.567 9.35744ZM143.395 25.8274H147.168C147.595 25.1466 149.255 22.7005 149.707 22.0186L152.297 25.8274H156.22L151.743 19.4969L156.068 13.4184H152.275L149.836 17.1012C149.409 16.4203 147.799 14.0993 147.372 13.4184H143.394L147.795 19.5977L143.395 25.8274ZM158.801 18.2108C158.861 17.5253 159.182 16.8892 159.697 16.4341C160.212 15.9789 160.881 15.7393 161.567 15.7647C161.912 15.7258 162.262 15.7598 162.593 15.8645C162.924 15.9693 163.23 16.1424 163.491 16.3728C163.751 16.6032 163.961 16.8858 164.106 17.2023C164.251 17.5189 164.329 17.8624 164.334 18.2108H158.802H158.801ZM164.66 21.4386C164.472 22.0257 164.091 22.5318 163.58 22.875C163.069 23.2182 162.457 23.3785 161.844 23.3299C161.061 23.3579 160.296 23.0786 159.715 22.5514C159.133 22.0242 158.778 21.2904 158.726 20.5055H167.577C167.577 20.4551 167.628 19.9508 167.628 19.4716C167.628 15.4863 165.339 13.0402 161.516 13.0402C160.685 13.0562 159.866 13.2393 159.106 13.5787C158.347 13.9181 157.664 14.4068 157.096 15.0159C156.529 15.625 156.089 16.3422 155.803 17.1249C155.517 17.9075 155.39 18.7399 155.431 19.5725C155.382 20.437 155.513 21.302 155.814 22.1134C156.116 22.9248 156.58 23.6651 157.18 24.2878C157.78 24.9106 158.501 25.4024 159.299 25.7324C160.098 26.0624 160.955 26.2236 161.818 26.2057C163.06 26.2745 164.289 25.9246 165.31 25.2117C166.33 24.4988 167.084 23.4639 167.451 22.2718L164.66 21.4386ZM171.984 25.8274V7.56701H168.639V25.8244H171.984V25.8274Z" fill="white"/>
</g>
</svg>
