<svg width="30" height="23" viewBox="0 0 30 23" fill="none" xmlns="http://www.w3.org/2000/svg">
<path fill-rule="evenodd" clip-rule="evenodd" d="M6.74151 0C5.09409 0 3.87508 1.44193 3.92967 3.00566C3.98206 4.50798 3.91399 6.45371 3.42418 8.04045C2.93261 9.63164 2.10186 10.64 0.744629 10.7694V12.2306C2.10186 12.3603 2.93261 13.3681 3.42412 14.9596C3.91399 16.5463 3.982 18.492 3.92961 19.9943C3.87503 21.5578 5.09404 23 6.74174 23H23.6223C25.2697 23 26.4885 21.5581 26.4339 19.9943C26.3815 18.492 26.4496 16.5463 26.9394 14.9596C27.431 13.3681 28.2597 12.3599 29.617 12.2306V10.7694C28.2598 10.6397 27.431 9.63187 26.9394 8.04045C26.4496 6.45393 26.3815 4.50798 26.4339 3.00566C26.4885 1.44215 25.2697 0 23.6223 0H6.74128H6.74151Z" fill="url(#paint0_linear_908_106)"/>
<path fill-rule="evenodd" clip-rule="evenodd" d="M20.3209 14.1549C20.3209 16.3081 18.7148 17.6139 16.0494 17.6139H11.5123C11.3825 17.6139 11.2581 17.5624 11.1663 17.4706C11.0745 17.3788 11.0229 17.2544 11.0229 17.1246V5.86925C11.0229 5.73946 11.0745 5.61499 11.1663 5.52321C11.2581 5.43144 11.3825 5.37988 11.5123 5.37988H16.0236C18.2461 5.37988 19.7046 6.58373 19.7046 8.43201C19.7046 9.72929 18.7234 10.8907 17.4734 11.0941V11.1618C19.1751 11.3485 20.3209 12.527 20.3209 14.1549ZM15.5547 6.93115H12.9677V10.5853H15.1466C16.831 10.5853 17.7598 9.90704 17.7598 8.69468C17.7596 7.55851 16.9611 6.93115 15.5547 6.93115ZM12.9677 12.0352V16.0622H15.6499C17.4037 16.0622 18.3326 15.3584 18.3326 14.036C18.3326 12.7135 17.3776 12.035 15.5371 12.035H12.9677V12.0352Z" fill="white"/>
<defs>
<linearGradient id="paint0_linear_908_106" x1="0.744629" y1="11.5" x2="29.617" y2="11.5" gradientUnits="userSpaceOnUse">
<stop stop-color="#8B12FD"/>
<stop offset="1" stop-color="#6E11F4"/>
</linearGradient>
</defs>
</svg>
