<svg width="27" height="24" viewBox="0 0 27 24" fill="none" xmlns="http://www.w3.org/2000/svg">
<path d="M26.0741 11.6127C26.0741 9.8854 23.911 8.24846 20.5946 7.23335C21.3599 3.85318 21.0198 1.16393 19.521 0.30294C19.1756 0.10098 18.7716 0.00531465 18.3305 0.00531465V1.1905C18.575 1.1905 18.7716 1.23833 18.9364 1.32868C19.6592 1.74323 19.9728 3.32171 19.7283 5.35193C19.6698 5.85152 19.5742 6.37768 19.4572 6.91447C18.4155 6.65936 17.2782 6.46271 16.0824 6.33516C15.3649 5.35193 14.6208 4.45906 13.8714 3.67779C15.6041 2.06743 17.2304 1.18519 18.3358 1.18519V0C16.8743 0 14.961 1.04169 13.0264 2.8487C11.0918 1.05232 9.17854 0.021259 7.71699 0.021259V1.20644C8.81714 1.20644 10.4488 2.08337 12.1814 3.68311C11.4373 4.46438 10.6932 5.35193 9.98638 6.33516C8.78525 6.46271 7.6479 6.65936 6.60621 6.91978C6.48397 6.38831 6.39362 5.87278 6.32984 5.37851C6.08005 3.34828 6.38831 1.76981 7.1058 1.34994C7.26524 1.25428 7.47251 1.21176 7.71699 1.21176V0.0265737C7.27055 0.0265737 6.86663 0.122239 6.51586 0.324199C5.02242 1.18519 4.68759 3.86912 5.45823 7.23866C2.15247 8.25909 0 9.89072 0 11.6127C0 13.34 2.1631 14.9769 5.47949 15.992C4.71417 19.3722 5.05431 22.0615 6.55306 22.9224C6.89852 23.1244 7.30244 23.2201 7.74888 23.2201C9.21043 23.2201 11.1237 22.1784 13.0583 20.3714C14.9929 22.1677 16.9062 23.1988 18.3677 23.1988C18.8141 23.1988 19.2181 23.1031 19.5688 22.9012C21.0623 22.0402 21.3971 19.3563 20.6265 15.9867C23.9216 14.9716 26.0741 13.3347 26.0741 11.6127ZM19.1543 8.06776C18.9576 8.75336 18.7132 9.46022 18.4368 10.1671C18.2189 9.7419 17.9904 9.31673 17.7406 8.89155C17.4961 8.46637 17.2357 8.05182 16.9753 7.6479C17.7299 7.75951 18.4581 7.89769 19.1543 8.06776ZM16.7201 13.728C16.3056 14.4454 15.8804 15.1257 15.4393 15.7582C14.6474 15.8273 13.8449 15.8645 13.037 15.8645C12.2345 15.8645 11.432 15.8273 10.6454 15.7635C10.2043 15.131 9.77379 14.4561 9.35924 13.7439C8.95532 13.0477 8.58861 12.3408 8.25378 11.6286C8.58329 10.9165 8.95532 10.2043 9.35393 9.50805C9.76848 8.79057 10.1937 8.11028 10.6348 7.47783C11.4267 7.40874 12.2292 7.37153 13.037 7.37153C13.8396 7.37153 14.6421 7.40874 15.4287 7.47251C15.8698 8.10497 16.3003 8.77994 16.7148 9.49211C17.1187 10.1883 17.4855 10.8952 17.8203 11.6074C17.4855 12.3195 17.1187 13.0317 16.7201 13.728ZM18.4368 13.037C18.7238 13.7492 18.9683 14.4614 19.1702 15.1523C18.474 15.3224 17.7406 15.4659 16.9806 15.5775C17.241 15.1682 17.5014 14.7484 17.7459 14.3179C17.9904 13.8927 18.2189 13.4622 18.4368 13.037ZM13.0477 18.7079C12.5534 18.1976 12.0591 17.629 11.5702 17.0071C12.0485 17.0284 12.5375 17.0443 13.0317 17.0443C13.5313 17.0443 14.0256 17.0337 14.5092 17.0071C14.0309 17.629 13.5366 18.1976 13.0477 18.7079ZM9.0935 15.5775C8.33881 15.4659 7.6107 15.3277 6.91447 15.1576C7.11111 14.472 7.35559 13.7652 7.63195 13.0583C7.84986 13.4835 8.07839 13.9087 8.32818 14.3338C8.57798 14.759 8.83308 15.1736 9.0935 15.5775ZM13.0211 4.51752C13.5154 5.02774 14.0096 5.59641 14.4986 6.21824C14.0203 6.19698 13.5313 6.18103 13.037 6.18103C12.5375 6.18103 12.0432 6.19166 11.5595 6.21824C12.0379 5.59641 12.5321 5.02774 13.0211 4.51752ZM9.08819 7.6479C8.82777 8.05713 8.56735 8.477 8.32287 8.90749C8.07839 9.33267 7.84986 9.75785 7.63195 10.183C7.34496 9.47085 7.10048 8.75868 6.89852 8.06776C7.59475 7.90301 8.32819 7.75951 9.08819 7.6479ZM4.27836 14.3019C2.39694 13.4994 1.17987 12.4471 1.17987 11.6127C1.17987 10.7783 2.39694 9.72064 4.27836 8.92343C4.73543 8.72679 5.23501 8.5514 5.75054 8.38665C6.05348 9.42833 6.45208 10.5125 6.94635 11.6233C6.4574 12.7288 6.06411 13.8077 5.76648 14.844C5.24033 14.6793 4.74074 14.4986 4.27836 14.3019ZM7.13768 21.8967C6.41488 21.4821 6.10131 19.9037 6.34579 17.8734C6.40425 17.3739 6.49992 16.8477 6.61684 16.3109C7.65853 16.566 8.79588 16.7627 9.9917 16.8902C10.7092 17.8734 11.4532 18.7663 12.2026 19.5476C10.47 21.1579 8.84371 22.0402 7.73825 22.0402C7.49909 22.0349 7.29713 21.987 7.13768 21.8967ZM19.7442 17.8469C19.994 19.8771 19.6858 21.4556 18.9683 21.8754C18.8088 21.9711 18.6016 22.0136 18.3571 22.0136C17.2569 22.0136 15.6253 21.1367 13.8927 19.537C14.6368 18.7557 15.3808 17.8681 16.0877 16.8849C17.2888 16.7574 18.4262 16.5607 19.4679 16.3003C19.5901 16.8371 19.6858 17.3526 19.7442 17.8469ZM21.7904 14.3019C21.3333 14.4986 20.8337 14.674 20.3182 14.8387C20.0153 13.797 19.6167 12.7128 19.1224 11.6021C19.6114 10.4966 20.0047 9.4177 20.3023 8.38133C20.8284 8.54609 21.328 8.72679 21.7957 8.92343C23.6771 9.72596 24.8942 10.7783 24.8942 11.6127C24.8889 12.4471 23.6718 13.5047 21.7904 14.3019Z" fill="#48CBEF"/>
<path d="M13.0319 14.0413C14.3733 14.0413 15.4607 12.9538 15.4607 11.6124C15.4607 10.271 14.3733 9.18359 13.0319 9.18359C11.6905 9.18359 10.603 10.271 10.603 11.6124C10.603 12.9538 11.6905 14.0413 13.0319 14.0413Z" fill="#48CBEF"/>
</svg>
